<?xml version="1.0" encoding="UTF-8" standalone="no"?>
<!-- Generator: Adobe Illustrator 13.0.3, SVG Export Plug-In . SVG Version: 6.00 Build 14948)  -->

<svg
   version="1.1"
   id="レイヤー_1"
   x="0px"
   y="0px"
   width="76px"
   height="76px"
   viewBox="0 0 76 76"
   enable-background="new 0 0 76 76"
   xml:space="preserve"
   sodipodi:docname="cell_bomb.svg"
   inkscape:version="1.3.2 (091e20ef0f, 2023-11-25, custom)"
   xmlns:inkscape="http://www.inkscape.org/namespaces/inkscape"
   xmlns:sodipodi="http://sodipodi.sourceforge.net/DTD/sodipodi-0.dtd"
   xmlns="http://www.w3.org/2000/svg"
   xmlns:svg="http://www.w3.org/2000/svg"><defs
   id="defs3" /><sodipodi:namedview
   id="namedview3"
   pagecolor="#ffffff"
   bordercolor="#000000"
   borderopacity="0.25"
   inkscape:showpageshadow="2"
   inkscape:pageopacity="0.0"
   inkscape:pagecheckerboard="0"
   inkscape:deskcolor="#d1d1d1"
   inkscape:zoom="6.2269738"
   inkscape:cx="-2.8103539"
   inkscape:cy="69.616481"
   inkscape:window-width="3836"
   inkscape:window-height="2099"
   inkscape:window-x="0"
   inkscape:window-y="22"
   inkscape:window-maximized="1"
   inkscape:current-layer="レイヤー_1" />
<g
   id="g2">
	<g
   id="g1">
		<path
   id="rect1313_65_"
   fill="#FDFCFD"
   d="M0.009,0h75.982C75.996,0,76,0.004,76,0.009V75.99c0,0.006-0.004,0.01-0.009,0.01H0.009    C0.004,76,0,75.996,0,75.99V0.009C0,0.004,0.004,0,0.009,0z"
   style="fill:#ffffff;fill-opacity:1" />
		<path
   id="path1341_65_"
   fill="#757575"
   d="M75.99,0C75.995,0,76,0.005,76,0.01v75.981C76,75.996,75.995,76,75.99,76H0.009    C0.004,76,0,75.996,0,75.991L75.99,0z"
   style="fill:#808080;fill-opacity:1" />
		<polygon
   id="rect1311_65_"
   fill="#B9B9B9"
   points="8.508,8.5 67.492,8.5 67.5,8.508 67.5,67.491 67.492,67.5 8.508,67.5     8.5,67.491 8.5,8.508   "
   style="fill:#bfbfbf;fill-opacity:1" />
	</g>
</g>

<path
   d="M 72.912099,36.194685 68.746765,35.097862 C 68.244638,34.963989 67.72027,34.934527 67.2063,35.011642 66.676735,30.87808 65.246458,26.911173 63.016416,23.39079 l 3.561396,-6.038382 c 0.825613,-1.392584 0.492883,-2.205923 0.07393,-2.637145 -0.418946,-0.431363 -1.232285,-0.776371 -2.637144,0 l -5.520805,3.142451 C 53.745471,13.307661 47.602533,10.490145 41.056245,9.8599214 L 39.244713,3.0944157 C 38.80122,1.5291092 38.01243,1.19638 37.383939,1.19638 c -0.603795,0 -1.404856,0.3327292 -1.836223,1.8977452 l -1.873194,6.9256618 c -6.192907,0.890601 -11.939574,3.735848 -16.402399,8.121123 l -5.9643,-3.401238 c -1.4048582,-0.801064 -2.2059232,-0.455915 -2.637144,0 -0.431363,0.455915 -0.7516744,1.232285 0.073956,2.637145 l 3.906543,6.580657 c -2.042592,3.385643 -3.3446278,7.165679 -3.8201849,11.090998 -0.5148354,-0.07292 -1.0390564,-0.03943 -1.5404646,0.09863 l -4.1653302,1.096824 c -1.5897208,0.357427 -1.9101752,1.158346 -1.9101752,1.762286 0,0.603795 0.3327292,1.404861 1.8977452,1.823803 L 7.20416,40.889872 c 0.4702139,0.126802 0.9547204,0.193072 1.4418291,0.197121 h 0.086217 c 0.3562687,4.070595 1.5833559,8.016854 3.5983639,11.571605 l -3.5860891,6.013833 c -0.8256155,1.404858 -0.4928863,2.205923 -0.073956,2.637145 0.2904178,0.299225 0.6921777,0.464434 1.1090999,0.455913 0.5422752,-0.02556 1.0688082,-0.19106 1.5280442,-0.480609 l 5.188073,-2.957598 c 4.627602,4.92755 10.820653,8.098014 17.523774,8.971431 l 1.528046,5.619438 c 0.418945,1.565015 1.232285,1.885469 1.836223,1.885469 0.603941,0 1.404861,-0.33273 1.836225,-1.885469 l 1.491076,-5.496255 C 47.767153,66.82229 54.366009,63.682729 59.282293,58.58607 l 4.720028,2.686535 c 0.459238,0.289549 0.985771,0.455048 1.528045,0.480609 0.416924,0.0084 0.818685,-0.156685 1.1091,-0.455913 0.418945,-0.431366 0.751674,-1.232287 -0.07396,-2.637145 l -3.179422,-5.409895 c 2.222966,-3.709417 3.567749,-7.878505 3.931096,-12.18782 h 0.08622 c 0.477722,0.0019 0.953854,-0.05604 1.417136,-0.172584 l 4.066698,-1.072132 c 1.577434,-0.406667 1.897743,-1.232284 1.897743,-1.811528 2.91e-4,-0.579245 -0.295468,-1.404859 -1.872903,-1.811528 z M 22.889394,51.772914 c -0.0709,0.111495 -0.179357,0.193955 -0.305722,0.232648 l 0.04925,-0.03698 -6.543687,3.696996 -4.115944,2.403052 6.161712,-10.450232 c 0.09575,-0.199575 0.277131,-0.344861 0.492884,-0.394395 0.199427,0.01644 0.384866,0.109034 0.517583,0.25879 l 3.573812,3.524424 c 0.258358,0.164488 0.334606,0.507183 0.170107,0.765684 z m 0.173295,-27.048891 c -0.03872,0.12636 -0.121158,0.234807 -0.232647,0.305727 l -0.07396,-0.01223 -3.573814,3.524423 c -0.193513,0.280021 -0.577222,0.35006 -0.857242,0.156686 -0.103981,-0.07176 -0.183258,-0.173736 -0.227299,-0.29215 v -0.09863 l -6.137019,-10.363871 4.929284,2.785025 5.804288,3.302604 c 0.293159,0.08953 0.458081,0.399594 0.368401,0.692465 z m 11.11728,-7.260848 3.179417,-11.7194854 1.503495,5.5454994 1.380166,5.101857 0.283483,1.059855 c 0.141814,0.286661 0.0243,0.634122 -0.262255,0.775936 -0.113352,0.05619 -0.242045,0.07351 -0.366233,0.04968 h -5.064888 c -0.314101,0.06036 -0.617805,-0.145276 -0.678168,-0.459382 -0.02379,-0.124194 -0.0063,-0.252869 0.04969,-0.366233 z m 6.358836,41.073657 -3.179419,11.719486 -1.232283,-4.387151 -1.984105,-7.32006 c -0.141813,-0.286662 -0.0243,-0.634121 0.262256,-0.775936 0.113351,-0.05619 0.242044,-0.07351 0.366235,-0.04968 h 5.101858 c 0.3141,-0.06036 0.617803,0.145275 0.678168,0.45938 0.02381,0.124194 0.0063,0.252867 -0.04968,0.366233 z M 37.47131,41.704225 c -0.02902,0 -0.05819,-2.9e-4 -0.08723,-10e-4 -2.041292,-0.04765 -3.65743,-1.741056 -3.609775,-3.782202 0.04765,-2.041294 1.741058,-3.657432 3.782204,-3.609774 2.007211,0.04679 3.610207,1.687189 3.610784,3.694976 5.76e-4,2.041726 -1.654261,3.697433 -3.695987,3.698012 z M 52.359236,24.239516 c 0.0709,-0.111495 0.179357,-0.193955 0.305725,-0.232649 v 0.0247 l 1.096825,-0.628491 9.587504,-5.459282 -2.834414,4.818375 -3.315025,5.631713 c -0.118551,0.31901 -0.473243,0.481332 -0.792254,0.362767 -0.118405,-0.04403 -0.220381,-0.12331 -0.29215,-0.227298 l -3.58609,-3.524426 c -0.258356,-0.164189 -0.334608,-0.507032 -0.170129,-0.765389 z m 7.330026,31.734111 -7.024297,-3.992758 c -0.292871,-0.08953 -0.457793,-0.399594 -0.368109,-0.692465 0.03869,-0.12636 0.121158,-0.234808 0.232647,-0.305725 l 1.934714,-1.88547 1.66365,-1.626678 c 0.132709,-0.149767 0.318143,-0.242463 0.51758,-0.258791 0.215742,0.04955 0.397282,0.194667 0.492884,0.394395 l 0.468334,0.801065 5.681104,9.661443 z"
   id="path1"
   style="stroke-width:0.144414;fill:#000000" /></svg>
