<?xml version="1.0" encoding="UTF-8" standalone="no"?>
<!-- Generator: Adobe Illustrator 13.0.3, SVG Export Plug-In . SVG Version: 6.00 Build 14948)  -->

<svg
   version="1.1"
   id="レイヤー_1"
   x="0px"
   y="0px"
   width="76px"
   height="76px"
   viewBox="0 0 76 76"
   enable-background="new 0 0 76 76"
   xml:space="preserve"
   sodipodi:docname="cell_2.svg"
   inkscape:version="1.3.2 (091e20ef0f, 2023-11-25, custom)"
   xmlns:inkscape="http://www.inkscape.org/namespaces/inkscape"
   xmlns:sodipodi="http://sodipodi.sourceforge.net/DTD/sodipodi-0.dtd"
   xmlns="http://www.w3.org/2000/svg"
   xmlns:svg="http://www.w3.org/2000/svg"><defs
   id="defs2" /><sodipodi:namedview
   id="namedview2"
   pagecolor="#ffffff"
   bordercolor="#000000"
   borderopacity="0.25"
   inkscape:showpageshadow="2"
   inkscape:pageopacity="0.0"
   inkscape:pagecheckerboard="0"
   inkscape:deskcolor="#d1d1d1"
   inkscape:zoom="24.907895"
   inkscape:cx="38"
   inkscape:cy="38"
   inkscape:window-width="3836"
   inkscape:window-height="2099"
   inkscape:window-x="0"
   inkscape:window-y="22"
   inkscape:window-maximized="1"
   inkscape:current-layer="レイヤー_1" />
<g
   id="rect1313_66_">
	<polygon
   fill="#B9B9B9"
   points="75.001,75.001 1,75.001 1,1 75.001,1  "
   id="polygon1"
   style="fill:#bfbfbf;fill-opacity:1" />
	<path
   fill="#757575"
   d="M 75.991,0 C 75.996,0 76,0.004 76,0.009 V 26.240362 75.99 C 76,75.996 75.996,76 75.991,76 H 0.009 C 0.004,76 0,75.996 0,75.99 V 0.009 C 0,0.004 0.004,0 0.009,0 H 75.991 M 74,2 H 2 v 72 h 72 z"
   id="path1"
   sodipodi:nodetypes="cscsssssscccccc"
   style="fill:#808080;fill-opacity:1" />
</g>
<path
   fill="#008200"
   d="M51.256,26.134v-4.545c0-1.545-1.293-2.796-2.892-2.796H27.393c-1.593,0-2.892,1.251-2.892,2.796v4.545  H8.593v-5.942C8.593,14.011,13.778,9,20.163,9h35.433c6.388,0,11.569,5.011,11.569,11.191c0,4.064,1.287,8.448-2.521,11.417  c-2.649,2.062-5.948,3.822-8.757,5.743c-6.993,4.777-14.083,9.431-21.093,14.188c-0.91,0.621-3.707,3.276-4.87,3.276  c0.012,0,37.602,0,37.602,0V66H8.774c0-4.529-1.605-9.863,2.609-13.253c2.949-2.372,6.773-4.315,9.932-6.502  c8-5.557,16.259-10.779,24.287-16.306C46.188,29.535,51.256,26.874,51.256,26.134z"
   id="path2"
   style="fill:#414141;fill-opacity:1" />
</svg>
