<?xml version="1.0" encoding="UTF-8" standalone="no"?>
<!-- Generator: Adobe Illustrator 13.0.3, SVG Export Plug-In . SVG Version: 6.00 Build 14948)  -->

<svg
   version="1.1"
   id="レイヤー_1"
   x="0px"
   y="0px"
   width="76px"
   height="76px"
   viewBox="0 0 76 76"
   enable-background="new 0 0 76 76"
   xml:space="preserve"
   sodipodi:docname="cell_flag.svg"
   inkscape:version="1.3.2 (091e20ef0f, 2023-11-25, custom)"
   xmlns:inkscape="http://www.inkscape.org/namespaces/inkscape"
   xmlns:sodipodi="http://sodipodi.sourceforge.net/DTD/sodipodi-0.dtd"
   xmlns="http://www.w3.org/2000/svg"
   xmlns:svg="http://www.w3.org/2000/svg"><defs
   id="defs4" /><sodipodi:namedview
   id="namedview4"
   pagecolor="#ffffff"
   bordercolor="#000000"
   borderopacity="0.25"
   inkscape:showpageshadow="2"
   inkscape:pageopacity="0.0"
   inkscape:pagecheckerboard="0"
   inkscape:deskcolor="#d1d1d1"
   inkscape:zoom="12.453947"
   inkscape:cx="58.896991"
   inkscape:cy="49.66297"
   inkscape:window-width="3836"
   inkscape:window-height="2099"
   inkscape:window-x="0"
   inkscape:window-y="22"
   inkscape:window-maximized="1"
   inkscape:current-layer="g4" />
<g
   id="g4">
	<g
   id="g1">
		<path
   id="rect1313_65_"
   fill="#FDFCFD"
   d="M0.009,0h75.982C75.996,0,76,0.004,76,0.009V75.99c0,0.006-0.004,0.01-0.009,0.01H0.009    C0.004,76,0,75.996,0,75.99V0.009C0,0.004,0.004,0,0.009,0z"
   style="fill:#ffffff;fill-opacity:1" />
		<path
   id="path1341_65_"
   fill="#757575"
   d="M75.99,0C75.995,0,76,0.005,76,0.01v75.981C76,75.996,75.995,76,75.99,76H0.009    C0.004,76,0,75.996,0,75.991L75.99,0z"
   style="fill:#808080;fill-opacity:1" />
		<polygon
   id="rect1311_65_"
   fill="#B9B9B9"
   points="8.508,8.5 67.492,8.5 67.5,8.508 67.5,67.491 67.492,67.5 8.508,67.5     8.5,67.491 8.5,8.508   "
   style="fill:#bfbfbf;fill-opacity:1" />
	</g>
	<g
   id="g3">
		<polygon
   points="35.999,55.5 35.999,16.5 40,16.5 40,55.5 35.999,55.5   "
   id="polygon1"
   style="fill:#000000" />
		<polygon
   fill="#FF0000"
   points="40,13.875 19.375,27 40,40.125   "
   id="polygon2"
   style="fill:#404040;fill-opacity:1" />
		<rect
   x="28.571"
   y="51.625"
   width="18.857"
   height="5.5"
   id="rect2"
   style="fill:#000000" />
		<rect
   x="20.222"
   y="56.459"
   width="35.555"
   height="7.041"
   id="rect3"
   style="fill:#000000" />
	</g>
</g>
</svg>
